# xmcd
#
# Track frame offsets:
#	150
#	18102
#	36555
#	54378
#	65053
#	86306
#	103802
#	128236
#	136144
#	171274
#	189489
#	210370
#	223752
#	243608
#	259187
#	281339
#	300051
#
# Disc length: 4093 seconds
#
# Revision: 1
# Processed by: cddbd v1.4PL0 Copyright (c) Steve Scherf et al.
# Submitted via: audiograbber 1.81.03
#
DISCID=ee0ffb11
DTITLE=Morcheeba - Big Calm
DYEAR=1998
DGENRE=
TTITLE0=Shoulder Holster
TTITLE1=World Looking In
TTITLE2=Moog Island
TTITLE3=Over And Over
TTITLE4=Summer Time
TTITLE5=Shallow End
TTITLE6=The Sea
TTITLE7=Post Houmous
TTITLE8=End Theme
TTITLE9=Love Is Rare
TTITLE10=Blindfold
TTITLE11=Howling
TTITLE12=Part Of The Progress
TTITLE13=Good Girl Down
TTITLE14=Friction
TTITLE15=Bullet Proof
TTITLE16=Diggin' A Watery Grave
EXTD=
EXTT0=
EXTT1=
EXTT2=
EXTT3=
EXTT4=
EXTT5=
EXTT6=
EXTT7=
EXTT8=
EXTT9=
EXTT10=
EXTT11=
EXTT12=
EXTT13=
EXTT14=
EXTT15=
EXTT16=
PLAYORDER=
